<svg width="60" height="60" viewBox="0 0 60 60" fill="none" xmlns="http://www.w3.org/2000/svg">
<path d="M30 51.9746C28.486 51.9746 27.03 51.5156 25.788 50.6476L18.288 45.3966C17.836 45.0796 17.726 44.4566 18.042 44.0036C18.359 43.5516 18.982 43.4416 19.435 43.7576L26.935 49.0086C28.741 50.2726 31.259 50.2726 33.065 49.0086L49.788 37.3016C50.547 36.7706 51 35.9006 51 34.9746C51 34.0486 50.547 33.1786 49.788 32.6476L33.065 20.9406C31.259 19.6766 28.742 19.6766 26.934 20.9406L10.212 32.6476C9.453 33.1786 9 34.0486 9 34.9746C9 35.9006 9.453 36.7706 10.212 37.3016L16.158 41.4636C16.611 41.7796 16.72 42.4036 16.404 42.8566C16.087 43.3096 15.465 43.4196 15.011 43.1026L9.065 38.9406C7.772 38.0356 7 36.5526 7 34.9746C7 33.3966 7.772 31.9136 9.065 31.0086L25.787 19.3016C28.272 17.5656 31.73 17.5666 34.211 19.3016L50.934 31.0086C52.228 31.9126 53 33.3966 53 34.9746C53 36.5526 52.228 38.0366 50.935 38.9406L34.212 50.6476C32.971 51.5156 31.515 51.9746 30 51.9746Z" fill="black"/>
<path d="M30 38.9746C29.31 38.9746 28.646 38.7656 28.081 38.3706L11.359 26.6626C11.134 26.5056 11 26.2476 11 25.9746C11 25.7016 11.134 25.4436 11.359 25.2866L28.082 13.5796C28.646 13.1836 29.31 12.9746 30 12.9746C30.69 12.9746 31.354 13.1836 31.919 13.5786L48.641 25.2856C48.866 25.4436 49 25.7006 49 25.9746C49 26.2486 48.866 26.5056 48.642 26.6626L31.918 38.3706C31.354 38.7656 30.69 38.9746 30 38.9746Z" fill="white"/>
<path d="M30 42.9746C28.486 42.9746 27.03 42.5156 25.788 41.6476L9.065 29.9406C7.772 29.0356 7 27.5526 7 25.9746C7 24.3966 7.772 22.9136 9.065 22.0086L25.788 10.3016C28.273 8.56563 31.731 8.56662 34.212 10.3016L50.935 22.0086C52.228 22.9126 53 24.3966 53 25.9746C53 27.5526 52.228 29.0366 50.935 29.9406L34.212 41.6476C32.971 42.5156 31.515 42.9746 30 42.9746ZM30 10.9746C28.898 10.9746 27.838 11.3086 26.935 11.9406L10.212 23.6476C9.453 24.1786 9 25.0486 9 25.9746C9 26.9006 9.453 27.7706 10.212 28.3016L26.935 40.0086C28.741 41.2726 31.259 41.2716 33.065 40.0086L49.788 28.3016C50.547 27.7706 51 26.9006 51 25.9746C51 25.0486 50.547 24.1786 49.788 23.6476L33.065 11.9406C32.162 11.3086 31.103 10.9746 30 10.9746Z" fill="white"/>
<path d="M25.1036 30C24.7676 30 24.5996 29.832 24.5996 29.496V22.056C24.5996 21.72 24.7676 21.552 25.1036 21.552C25.4396 21.552 25.6076 21.72 25.6076 22.056V26.562L28.4636 24.108C28.7196 23.888 28.9556 23.904 29.1716 24.156C29.3916 24.412 29.3756 24.648 29.1236 24.864L26.9336 26.754L29.0276 29.136C29.2516 29.396 29.2396 29.632 28.9916 29.844C28.7356 30.064 28.4956 30.048 28.2716 29.796L26.1656 27.42L25.6076 27.9V29.496C25.6076 29.832 25.4396 30 25.1036 30ZM33.1893 29.988C32.2733 29.988 31.5953 29.77 31.1553 29.334C30.7193 28.894 30.5013 28.216 30.5013 27.3V24.528C30.5013 23.604 30.7193 22.924 31.1553 22.488C31.5953 22.052 32.2733 21.84 33.1893 21.852H33.9093C34.8293 21.852 35.5073 22.07 35.9433 22.506C36.3793 22.938 36.5973 23.616 36.5973 24.54V27.3C36.5973 28.216 36.3793 28.894 35.9433 29.334C35.5073 29.77 34.8293 29.988 33.9093 29.988H33.1893ZM33.1893 28.98H33.9093C34.3373 28.98 34.6733 28.928 34.9173 28.824C35.1613 28.72 35.3333 28.546 35.4333 28.302C35.5373 28.058 35.5893 27.724 35.5893 27.3V24.54C35.5893 24.112 35.5373 23.776 35.4333 23.532C35.3333 23.288 35.1613 23.116 34.9173 23.016C34.6733 22.912 34.3373 22.86 33.9093 22.86H33.1893C32.7653 22.852 32.4313 22.898 32.1873 22.998C31.9433 23.094 31.7693 23.266 31.6653 23.514C31.5613 23.758 31.5093 24.096 31.5093 24.528V27.3C31.5093 27.724 31.5593 28.058 31.6593 28.302C31.7633 28.546 31.9373 28.72 32.1813 28.824C32.4253 28.928 32.7613 28.98 33.1893 28.98ZM33.4053 26.508C33.0853 26.508 32.9253 26.348 32.9253 26.028V25.728C32.9253 25.416 33.0853 25.26 33.4053 25.26H33.6933C33.9973 25.26 34.1493 25.416 34.1493 25.728V26.028C34.1493 26.348 33.9973 26.508 33.6933 26.508H33.4053Z" fill="black"/>
</svg>
